name C:\Users\u0101727\Documents\MyRepositories\upper-imu-dc\Results\main_mocap_tracking\Case_8\FLX01_angularVelocities.mot
datacolumns 4
datarows 70
range 3.51000000 4.20000000
endheader 
time	radius_imu_x	radius_imu_y	radius_imu_z	
          3.51000000	          0.01739861	          0.27646450	          0.10119358	
          3.52000000	          0.02977861	          0.21179724	          0.10014809	
          3.53000000	          0.04121230	          0.14589777	          0.09776044	
          3.54000000	          0.05153170	          0.08183172	          0.09419864	
          3.55000000	          0.06063820	          0.02295797	          0.08969672	
          3.56000000	          0.06852544	         -0.02821036	          0.08453453	
          3.57000000	          0.07528070	         -0.07090937	          0.07900087	
          3.58000000	          0.08103858	         -0.10621592	          0.07334299	
          3.59000000	          0.08591391	         -0.13641475	          0.06772150	
          3.60000000	          0.08996688	         -0.16415920	          0.06219321	
          3.61000000	          0.09321797	         -0.19172262	          0.05673577	
          3.62000000	          0.09566425	         -0.22020821	          0.05130197	
          3.63000000	          0.09725409	         -0.24869162	          0.04585793	
          3.64000000	          0.09783971	         -0.27370017	          0.04039605	
          3.65000000	          0.09716353	         -0.28948114	          0.03494531	
          3.66000000	          0.09490451	         -0.28908073	          0.02958737	
          3.67000000	          0.09077573	         -0.26591221	          0.02447742	
          3.68000000	          0.08466483	         -0.21557229	          0.01987130	
          3.69000000	          0.07680912	         -0.13781448	          0.01616496	
          3.70000000	          0.06795911	         -0.03826755	          0.01393488	
          3.71000000	          0.05940905	          0.07130726	          0.01393066	
          3.72000000	          0.05278068	          0.17535281	          0.01697231	
          3.73000000	          0.04961203	          0.25882311	          0.02377327	
          3.74000000	          0.05093856	          0.31144073	          0.03476420	
          3.75000000	          0.05702203	          0.33029746	          0.04998595	
          3.76000000	          0.06729316	          0.32021806	          0.06908104	
          3.77000000	          0.08050179	          0.29205917	          0.09137781	
          3.78000000	          0.09501359	          0.25960750	          0.11603765	
          3.79000000	          0.10917188	          0.23593235	          0.14222347	
          3.80000000	          0.12164034	          0.23008019	          0.16924987	
          3.81000000	          0.13164840	          0.24496191	          0.19668295	
          3.82000000	          0.13908237	          0.27699516	          0.22437008	
          3.83000000	          0.14440607	          0.31750649	          0.25239775	
          3.84000000	          0.14844343	          0.35533200	          0.28099561	
          3.85000000	          0.15209688	          0.37977259	          0.31041915	
          3.86000000	          0.15608754	          0.38310759	          0.34084598	
          3.87000000	          0.16078637	          0.36211096	          0.37231055	
          3.88000000	          0.16616491	          0.31834536	          0.40468746	
          3.89000000	          0.17185890	          0.25737587	          0.43771689	
          3.90000000	          0.17730537	          0.18727361	          0.47106534	
          3.91000000	          0.18191507	          0.11686217	          0.50439159	
          3.92000000	          0.18522535	          0.05404826	          0.53741059	
          3.93000000	          0.18698880	          0.00447153	          0.56994240	
          3.94000000	          0.18719846	         -0.02935681	          0.60193281	
          3.95000000	          0.18606509	         -0.04830670	          0.63346083	
          3.96000000	          0.18397256	         -0.05616920	          0.66473638	
          3.97000000	          0.18142776	         -0.05854476	          0.69608916	
          3.98000000	          0.17901403	         -0.06138020	          0.72794590	
          3.99000000	          0.17735578	         -0.06959500	          0.76079402	
          4.00000000	          0.17709142	         -0.08617004	          0.79513131	
          4.01000000	          0.17884420	         -0.11184287	          0.83140159	
          4.02000000	          0.18317894	         -0.14532362	          0.86991937	
          4.03000000	          0.19054233	         -0.18380968	          0.91079531	
          4.04000000	          0.20120212	         -0.22358341	          0.95388293	
          4.05000000	          0.21520678	         -0.26063714	          0.99876786	
          4.06000000	          0.23238009	         -0.29142242	          1.04480484	
          4.07000000	          0.25235234	         -0.31378778	          1.09118928	
          4.08000000	          0.27462584	         -0.32796633	          1.13703525	
          4.09000000	          0.29868132	         -0.33725225	          1.18143781	
          4.10000000	          0.32411371	         -0.34800576	          1.22351770	
          4.11000000	          0.35076101	         -0.36886855	          1.26245390	
          4.12000000	          0.37878425	         -0.40935199	          1.29751088	
          4.13000000	          0.40865619	         -0.47807084	          1.32805776	
          4.14000000	          0.44103288	         -0.58083409	          1.35356798	
          4.15000000	          0.47652130	         -0.71878016	          1.37359458	
          4.16000000	          0.51539771	         -0.88684024	          1.38773252	
          4.17000000	          0.55735217	         -1.07292898	          1.39559228	
          4.18000000	          0.60133200	         -1.25826995	          1.39681026	
          4.19000000	          0.64553845	         -1.41909310	          1.39110982	
          4.20000000	          0.68759458	         -1.52962521	          1.37840555	
